<?xml version="1.0" encoding="utf-8"?>
<!-- Svg Vector Icons : http://www.onlinewebfonts.com/icon -->
<!DOCTYPE svg PUBLIC "-//W3C//DTD SVG 1.1//EN" "http://www.w3.org/Graphics/SVG/1.1/DTD/svg11.dtd">
<svg version="1.1" xmlns="http://www.w3.org/2000/svg" xmlns:xlink="http://www.w3.org/1999/xlink" x="0px" y="0px" viewBox="0 0 1000 1000" enable-background="new 0 0 1000 1000" xml:space="preserve" fill="#00ffff98">
<metadata> Svg Vector Icons : http://www.onlinewebfonts.com/icon </metadata>
<g><g transform="translate(0.000000,511.000000) scale(0.100000,-0.100000)"><path d="M268.6,3047.4L100,2875.8L2057.9,917.9L4018.8-1043L4912-149.8l896.1,896.1L7227.8-673.3c780.8-780.8,1419.6-1434.4,1419.6-1455.1c0-17.7-156.7-180.4-346.1-360.8c-189.3-180.4-340.1-334.2-331.3-340.1c20.7-17.7,1916.6-180.4,1928.4-165.6c8.9,8.9-23.7,420-71,916.9c-44.4,496.9-82.8,925.7-85.8,955.3c0,38.4-112.4-50.3-360.8-289.8l-360.8-343.1l-1606,1606l-1606,1606L4912,560l-893.2-893.2L2244.3,1441.4C1268.3,2417.4,463.8,3216,454.9,3216S363.2,3139.1,268.6,3047.4z"/></g></g>
</svg>